<svg width="332" height="151" viewBox="0 0 332 151" fill="none" xmlns="http://www.w3.org/2000/svg">
        <g id="Frame 1261152804">
            <rect width="332" height="151" fill="white" />
            <g id="logo-wrapper">
                <g id="logo">
                    <g id="Clip path group">
                        <mask id="mask0_4651_6661" style="mask-type:luminance" maskUnits="userSpaceOnUse" x="19" y="35" width="90" height="81">
                            <g id="clippath">
                                <path id="Vector" d="M107.294 51.8332L73.6001 110.372C69.2808 117.876 58.5378 117.876 54.2186 110.372C42.9885 90.8627 31.7546 71.3461 20.5245 51.8332C16.2053 44.3289 21.5748 35 30.2134 35H97.6052C106.244 35 111.613 44.3327 107.294 51.8332Z" fill="white" />
                            </g>
                        </mask>
                        <g mask="url(#mask0_4651_6661)">
                            <g id="Group">
                                <path id="Vector_2" d="M111.611 35H16.2031V117.876H111.611V35Z" fill="url(#paint0_linear_4651_6661)" />
                            </g>
                        </g>
                    </g>
                    <g id="Group 3">
                        <g id="Vector_3" filter="url(#filter0_d_4651_6661)">
                            <path fill-rule="evenodd" clip-rule="evenodd" d="M32.0547 45.5216L40.8188 59.2592L37.8695 79.3255L49.8759 72.409L61.2658 87.8948L95.329 45.4414L32.0547 45.5216Z" fill="white" />
                        </g>
                        <g id="Group_2">
                            <path id="Vector_4" fill-rule="evenodd" clip-rule="evenodd" d="M37.8672 79.3251L49.8736 72.4086L45.6647 65.4501L84.1651 47.7656L43.6478 59.5184L37.8672 79.3251Z" fill="#ACACAC" />
                        </g>
                    </g>
                </g>
                <g id="text">
                    <g id="SvgjsG160030">
                        <path id="Vector_5" d="M131.101 70.5053L129.477 57.2849H122.891L126.435 75.1107H135.818L139.363 57.2849H132.763L131.229 70.5053H131.101ZM146.817 56.0134H140.455V59.1869H146.817V56.0134ZM146.817 75.1107V60.5787H140.455V75.1107H146.817ZM158.884 60.2768C158.107 60.2768 157.398 60.3917 156.741 60.6187C156.088 60.8511 155.611 61.169 155.305 61.5831V56H148.943V75.1107H155.305V62.7638H157.167V75.1107H163.529V64.5509C163.529 61.7006 161.979 60.2795 158.884 60.2795V60.2768ZM183.453 64.404H183.607L184.231 75.1107H189.203L188.263 57.2849H180.787L179.37 67.615H179.226L177.81 57.2849H170.347L169.412 75.1107H174.547L175.17 64.404H175.325L176.944 75.1214H181.698L183.45 64.404H183.453ZM197.11 66.4262V62.7611H198.982V66.4262H197.11ZM205.334 69.7093H198.972V72.8828H197.11V68.3576H205.334V64.4441C205.334 64.0167 205.284 63.6186 205.185 63.258C205.087 62.8947 204.953 62.5822 204.794 62.315C204.639 62.0479 204.426 61.8128 204.165 61.5991C203.907 61.3908 203.64 61.2118 203.377 61.0729C203.105 60.9286 202.788 60.8057 202.421 60.7096C202.045 60.6054 201.707 60.5306 201.39 60.4718C201.073 60.413 200.703 60.373 200.271 60.3436C199.845 60.3142 199.475 60.2982 199.153 60.2848C198.836 60.2795 198.46 60.2741 198.04 60.2741C197.499 60.2741 197.02 60.2848 196.617 60.2982C196.215 60.3142 195.741 60.3489 195.211 60.413C194.676 60.4772 194.215 60.568 193.824 60.6802C193.432 60.7897 193.035 60.9527 192.62 61.161C192.21 61.3694 191.877 61.6178 191.616 61.9063C191.363 62.1895 191.15 62.5528 190.987 62.9882C190.825 63.4263 190.74 63.9125 190.74 64.4574V71.1625C190.74 71.6086 190.79 72.012 190.883 72.3833C190.982 72.7599 191.107 73.0778 191.27 73.3476C191.432 73.6255 191.637 73.8686 191.893 74.0823C192.151 74.3013 192.412 74.4803 192.676 74.6245C192.942 74.7688 193.251 74.897 193.621 75.0012C193.989 75.1054 194.335 75.1855 194.652 75.2389C194.969 75.2977 195.344 75.3431 195.776 75.3725C196.207 75.4072 196.588 75.4313 196.91 75.4366C197.238 75.442 197.624 75.4473 198.064 75.4473C200.599 75.4473 202.466 75.1 203.648 74.4082C204.836 73.7136 205.43 72.5356 205.43 70.866C205.43 70.5534 205.396 70.1714 205.337 69.7146L205.334 69.7093ZM214.895 70.126V72.5088H213.034V70.6416L207.028 70.2836C207.023 70.3691 207.017 70.5027 207.017 70.671C207.017 71.2827 207.076 71.8277 207.196 72.3058C207.316 72.7786 207.473 73.1847 207.667 73.5133C207.864 73.8499 208.128 74.133 208.464 74.3681C208.799 74.6112 209.137 74.7955 209.484 74.9344C209.83 75.0733 210.256 75.1828 210.762 75.2576C211.263 75.3378 211.747 75.3859 212.197 75.4072C212.653 75.4313 213.188 75.442 213.817 75.442C214.341 75.442 214.807 75.4313 215.218 75.4126C215.628 75.3966 216.07 75.3618 216.555 75.3084C217.039 75.2576 217.46 75.1748 217.828 75.0653C218.19 74.9611 218.56 74.8222 218.941 74.6619C219.322 74.4936 219.639 74.2853 219.902 74.0315C220.169 73.7831 220.403 73.4892 220.616 73.1526C220.829 72.816 220.984 72.418 221.095 71.9559C221.205 71.4937 221.258 70.9782 221.258 70.4118C221.258 69.8455 221.149 69.3433 220.936 68.8732C220.723 68.411 220.422 68.013 220.043 67.6871C219.668 67.3639 219.255 67.0914 218.816 66.8723C218.371 66.6533 217.881 66.469 217.346 66.3167C216.999 66.2232 216.618 66.1377 216.211 66.0629C215.804 65.9881 215.305 65.908 214.72 65.8198C214.134 65.7317 213.739 65.6756 213.537 65.6462C213.271 65.6061 213.106 65.5473 213.036 65.4779V63.2233H214.898V65.0211L220.904 65.3577C220.914 65.2482 220.914 64.9356 220.914 64.42C220.914 63.8778 220.84 63.3862 220.691 62.9455C220.536 62.5127 220.344 62.1548 220.115 61.8716C219.884 61.5884 219.58 61.34 219.199 61.1316C218.824 60.9233 218.456 60.7683 218.099 60.6588C217.742 60.5493 217.311 60.4691 216.808 60.405C216.302 60.3463 215.862 60.3115 215.487 60.2955C215.111 60.2848 214.664 60.2715 214.144 60.2715C213.505 60.2715 212.927 60.2875 212.416 60.3222C211.902 60.3569 211.385 60.4157 210.855 60.5065C210.331 60.592 209.864 60.7149 209.468 60.8645C209.065 61.0141 208.685 61.2064 208.32 61.4495C207.963 61.6926 207.667 61.9758 207.438 62.3043C207.207 62.6329 207.023 63.0256 206.89 63.4904C206.756 63.9552 206.687 64.4735 206.687 65.0451C206.687 65.6168 206.791 66.1537 206.999 66.6346C207.207 67.1208 207.499 67.5295 207.875 67.8714C208.251 68.2133 208.663 68.5072 209.113 68.7449C209.564 68.9827 210.059 69.1777 210.613 69.3219C210.831 69.3861 211.068 69.4368 211.316 69.4902C211.558 69.541 211.83 69.5944 212.123 69.6398C212.416 69.6906 212.658 69.7253 212.855 69.7547C213.052 69.7787 213.327 69.8135 213.678 69.8589C214.035 69.9043 214.277 69.939 214.421 69.9631C214.688 69.9978 214.853 70.0485 214.911 70.118H214.901L214.895 70.126ZM230.651 70.126V72.5088H228.79V70.6416L222.784 70.2836C222.779 70.3691 222.773 70.5027 222.773 70.671C222.773 71.2827 222.832 71.8277 222.952 72.3058C223.072 72.7786 223.229 73.1847 223.423 73.5133C223.62 73.8499 223.884 74.133 224.219 74.3681C224.555 74.6112 224.893 74.7955 225.239 74.9344C225.586 75.0733 226.012 75.1828 226.518 75.2576C227.018 75.3378 227.498 75.3859 227.953 75.4072C228.409 75.4313 228.944 75.442 229.567 75.442C230.097 75.442 230.563 75.4313 230.973 75.4126C231.384 75.3966 231.826 75.3618 232.31 75.3084C232.795 75.2576 233.216 75.1748 233.583 75.0653C233.946 74.9611 234.316 74.8222 234.697 74.6619C235.077 74.4936 235.394 74.2853 235.658 74.0315C235.924 73.7831 236.159 73.4892 236.372 73.1526C236.585 72.816 236.739 72.418 236.851 71.9559C236.96 71.4937 237.014 70.9782 237.014 70.4118C237.014 69.8455 236.904 69.3433 236.691 68.8732C236.478 68.411 236.177 68.013 235.799 67.6871C235.424 67.3639 235.011 67.0914 234.571 66.8723C234.127 66.6533 233.637 66.469 233.101 66.3167C232.755 66.2232 232.374 66.1377 231.967 66.0629C231.557 65.9881 231.061 65.908 230.475 65.8198C229.887 65.7343 229.495 65.6756 229.293 65.6462C229.027 65.6061 228.861 65.5473 228.792 65.4779V63.2233H230.654V65.0211L236.659 65.3577C236.665 65.2482 236.67 64.9356 236.67 64.42C236.67 63.8778 236.596 63.3862 236.438 62.9455C236.289 62.5127 236.097 62.1548 235.868 61.8716C235.637 61.5884 235.333 61.34 234.952 61.1316C234.577 60.9233 234.209 60.7683 233.852 60.6588C233.495 60.5493 233.064 60.4691 232.561 60.405C232.055 60.3463 231.615 60.3115 231.24 60.2955C230.859 60.2848 230.417 60.2715 229.897 60.2715C229.258 60.2715 228.68 60.2875 228.169 60.3222C227.655 60.3569 227.138 60.4157 226.608 60.5065C226.084 60.592 225.618 60.7149 225.213 60.8645C224.816 61.0141 224.435 61.2064 224.073 61.4495C223.716 61.6926 223.42 61.9758 223.191 62.3043C222.96 62.6329 222.776 63.0256 222.643 63.4904C222.51 63.9526 222.44 64.4735 222.44 65.0451C222.44 65.6168 222.544 66.1537 222.752 66.6346C222.96 67.1208 223.253 67.5295 223.628 67.8714C224.004 68.2133 224.416 68.5072 224.867 68.7449C225.317 68.9827 225.812 69.1777 226.366 69.3219C226.584 69.3861 226.821 69.4368 227.064 69.4902C227.311 69.541 227.583 69.5944 227.876 69.6398C228.169 69.6906 228.411 69.7253 228.608 69.7547C228.806 69.7787 229.08 69.8135 229.431 69.8589C229.788 69.9043 230.031 69.939 230.174 69.9631C230.441 69.9978 230.606 70.0485 230.664 70.118H230.654L230.651 70.126ZM244.782 66.4262V62.7611H246.649V66.4262H244.782ZM253.006 69.7093H246.644V72.8828H244.782V68.3576H253.006V64.4441C253.006 64.0167 252.956 63.6186 252.852 63.258C252.753 62.8947 252.628 62.5822 252.466 62.315C252.303 62.0479 252.098 61.8128 251.837 61.5991C251.571 61.3908 251.313 61.2118 251.041 61.0729C250.775 60.9286 250.452 60.8057 250.085 60.7096C249.717 60.6054 249.371 60.5306 249.054 60.4718C248.737 60.413 248.367 60.373 247.941 60.3436C247.515 60.3142 247.139 60.2982 246.817 60.2848C246.5 60.2795 246.13 60.2741 245.704 60.2741C245.163 60.2741 244.689 60.2848 244.287 60.2982C243.877 60.3142 243.411 60.3489 242.875 60.413C242.34 60.4772 241.879 60.568 241.488 60.6802C241.102 60.7897 240.7 60.9527 240.289 61.161C239.874 61.3694 239.541 61.6178 239.28 61.9063C239.027 62.1895 238.819 62.5528 238.652 62.9882C238.489 63.4263 238.409 63.9125 238.409 64.4574V71.1625C238.409 71.6086 238.454 72.012 238.553 72.3833C238.652 72.7599 238.777 73.0778 238.939 73.3476C239.094 73.6255 239.301 73.8686 239.562 74.0823C239.815 74.3013 240.076 74.4803 240.34 74.6245C240.606 74.7688 240.923 74.897 241.291 75.0012C241.653 75.1054 241.999 75.1855 242.316 75.2389C242.638 75.2977 243.014 75.3431 243.445 75.3725C243.872 75.4072 244.252 75.4313 244.58 75.4366C244.908 75.442 245.288 75.4473 245.728 75.4473C248.269 75.4473 250.13 75.1 251.318 74.4082C252.5 73.7136 253.092 72.5356 253.092 70.866C253.092 70.5534 253.062 70.1714 253.006 69.7146V69.7093ZM264.706 60.2768C263.87 60.2768 263.116 60.4211 262.429 60.7042C261.75 60.9874 261.236 61.364 260.903 61.8315L260.493 60.576H254.81V75.1081H261.172V62.7611H263.034V75.1081H269.396V64.559C269.396 63.1538 268.994 62.096 268.192 61.3747C267.391 60.6535 266.227 60.2875 264.706 60.2768ZM279.378 62.7692V71.5792H277.516V62.7692H279.378ZM275.868 60.2768C272.728 60.2768 271.154 61.7674 271.154 64.7513V69.7226C271.154 72.6371 272.715 74.0929 275.833 74.0929C276.651 74.0929 277.389 73.9888 278.041 73.7751C278.699 73.5613 279.189 73.2435 279.522 72.8214V75.3592C279.061 75.6316 278.19 75.7705 276.907 75.7705C275.386 75.7705 274.099 75.6263 273.05 75.3378L272.416 78.5861C274.059 79.0429 275.828 79.2673 277.729 79.2673C280.478 79.2673 282.502 78.725 283.799 77.6244C285.096 76.5319 285.741 74.8089 285.741 72.4741V60.5894H280.046L279.644 61.8449C278.883 60.8164 277.62 60.2955 275.871 60.2795L275.868 60.2768ZM293.831 66.4262V62.7611H295.704V66.4262H293.831ZM302.056 69.7093H295.693V72.8828H293.831V68.3576H302.056V64.4441C302.056 64.0167 302.005 63.6186 301.906 63.258C301.803 62.8947 301.675 62.5822 301.515 62.315C301.352 62.0479 301.147 61.8128 300.886 61.5991C300.628 61.3908 300.362 61.2118 300.09 61.0729C299.824 60.9286 299.507 60.8057 299.134 60.7096C298.766 60.6054 298.42 60.5306 298.103 60.4718C297.792 60.413 297.419 60.373 296.99 60.3436C296.564 60.3142 296.188 60.2982 295.872 60.2848C295.549 60.2795 295.179 60.2741 294.753 60.2741C294.212 60.2741 293.738 60.2848 293.336 60.2982C292.934 60.3142 292.46 60.3489 291.925 60.413C291.389 60.4772 290.929 60.568 290.537 60.6802C290.151 60.7897 289.749 60.9527 289.339 61.161C288.923 61.3694 288.59 61.6178 288.335 61.9063C288.076 62.1895 287.868 62.5528 287.701 62.9882C287.538 63.4263 287.458 63.9125 287.458 64.4574V71.1625C287.458 71.6086 287.504 72.012 287.602 72.3833C287.701 72.7599 287.826 73.0778 287.988 73.3476C288.143 73.6255 288.356 73.8686 288.612 74.0823C288.865 74.3013 289.131 74.4803 289.389 74.6245C289.656 74.7688 289.972 74.897 290.34 75.0012C290.702 75.1054 291.048 75.1855 291.371 75.2389C291.688 75.2977 292.063 75.3431 292.495 75.3725C292.926 75.4072 293.301 75.4313 293.629 75.4366C293.957 75.442 294.338 75.4473 294.777 75.4473C297.318 75.4473 299.179 75.1 300.367 74.4082C301.55 73.7136 302.141 72.5356 302.141 70.866C302.141 70.5534 302.112 70.1714 302.056 69.7146V69.7093ZM303.907 75.1081H310.269V65.1253L313.457 64.5002V60.2741C312.581 60.2982 311.808 60.4825 311.145 60.8244C310.487 61.1664 310.032 61.6338 309.79 62.2242L309.329 60.576H303.917L303.907 75.1081Z" fill="#202020" />
                    </g>
                    <g id="SvgjsG160031">
                        <path id="Vector_6" d="M127.832 88.7845L127.936 87.9644H124.404V85.058H127.384V84.1898H124.404V81.6226H127.89L127.781 80.7972H123.32V88.7845H127.832ZM137.001 88.7845V85.1782C137.001 84.8416 136.991 84.5665 136.972 84.334C136.948 84.1016 136.914 83.8959 136.863 83.7036C136.804 83.5139 136.735 83.3563 136.65 83.2468C136.565 83.1319 136.442 83.0331 136.298 82.953C136.155 82.8675 135.981 82.8141 135.784 82.7793C135.595 82.7499 135.358 82.7393 135.087 82.7393C134.245 82.7393 133.68 83.0171 133.393 83.5727C133.284 83.2842 133.11 83.0705 132.868 82.9423C132.631 82.8141 132.309 82.7446 131.907 82.7446C131.504 82.7446 131.164 82.8087 130.892 82.9289C130.626 83.0491 130.421 83.2575 130.274 83.5487L130.176 82.9022H129.214V88.7872H130.269V85.5442C130.269 84.9725 130.293 84.4516 130.338 83.9788C130.338 83.8853 130.373 83.8051 130.442 83.7357C130.511 83.6662 130.596 83.6155 130.708 83.5807C130.812 83.546 130.927 83.522 131.044 83.5059C131.158 83.4899 131.281 83.4819 131.406 83.4819C131.608 83.4819 131.781 83.4872 131.907 83.4979C132.04 83.5139 132.154 83.5487 132.248 83.6074C132.341 83.6662 132.41 83.717 132.455 83.7704C132.495 83.8158 132.53 83.9146 132.554 84.0536C132.578 84.1978 132.594 84.3207 132.594 84.4222C132.599 84.5317 132.599 84.7054 132.599 84.9485V88.7872H133.654V85.4934C133.654 85.3732 133.648 85.2049 133.643 85.0019C133.643 84.8042 133.638 84.6599 133.638 84.5852C133.638 84.4169 133.643 84.2779 133.662 84.1738C133.678 84.0642 133.712 83.9654 133.766 83.8666C133.824 83.7731 133.899 83.6983 133.997 83.6475C134.096 83.5968 134.221 83.554 134.389 83.5193C134.551 83.4899 134.746 83.4792 134.988 83.4792C135.206 83.4792 135.385 83.4952 135.523 83.538C135.662 83.5781 135.76 83.6422 135.824 83.7277C135.883 83.8131 135.923 83.8959 135.939 83.9761C135.955 84.0562 135.968 84.1604 135.968 84.294C135.957 84.5023 135.952 84.8095 135.952 85.2129V88.7845H137.007H137.001ZM143.433 85.8834C143.433 85.635 143.428 85.4213 143.428 85.2423C143.423 85.0687 143.417 84.8843 143.404 84.692C143.388 84.5023 143.369 84.3394 143.345 84.2058C143.321 84.0723 143.295 83.9333 143.26 83.8024C143.22 83.6635 143.175 83.5487 143.122 83.4605C143.071 83.367 143.002 83.2815 142.925 83.1934C142.847 83.1052 142.762 83.0384 142.666 82.985C142.57 82.9316 142.453 82.8862 142.325 82.8461C142.197 82.806 142.059 82.7713 141.904 82.7606C141.75 82.7446 141.577 82.7366 141.385 82.7366C140.464 82.7366 139.894 83.0091 139.673 83.5513L139.574 82.8969H138.618V90.8574L139.667 90.7773V88.2289C139.806 88.6509 140.341 88.8646 141.287 88.8646C141.558 88.8646 141.801 88.8486 142.006 88.8059C142.213 88.7711 142.392 88.7204 142.546 88.6509C142.695 88.5815 142.829 88.4826 142.933 88.3571C143.036 88.2288 143.122 88.098 143.186 87.9537C143.255 87.8095 143.305 87.6305 143.335 87.4034C143.369 87.179 143.393 86.9466 143.404 86.7222C143.42 86.4898 143.428 86.2147 143.428 85.8834H143.433ZM142.379 85.5361C142.379 85.6216 142.379 85.7792 142.384 86.009C142.384 86.2467 142.389 86.4257 142.389 86.5593C142.389 87.4275 142.291 87.9056 142.096 88.0045C141.912 88.0846 141.561 88.1327 141.042 88.1327C140.661 88.1327 140.373 88.0926 140.16 88.0232C139.952 87.9484 139.814 87.8495 139.745 87.7213C139.675 87.6011 139.641 87.4274 139.641 87.2057C139.641 87.1309 139.646 86.9974 139.651 86.8024C139.662 86.6047 139.667 86.4444 139.667 86.3162C139.667 86.188 139.662 85.9876 139.657 85.7044C139.651 85.4266 139.651 85.2129 139.651 85.0687C139.651 84.3634 139.697 83.936 139.801 83.7864C139.979 83.5781 140.394 83.4792 141.039 83.4792C141.545 83.4792 141.891 83.5193 142.064 83.6074C142.237 83.6929 142.331 83.8612 142.341 84.1097C142.357 84.3421 142.371 84.8149 142.376 85.5361H142.379ZM147.231 88.1247C146.741 88.1247 146.389 88.0899 146.182 88.0205C145.974 87.951 145.87 87.8175 145.87 87.6331C145.83 87.1176 145.811 86.5299 145.811 85.854C145.811 85.635 145.817 85.3171 145.835 84.9057C145.851 84.489 145.865 84.1844 145.865 83.9868C145.865 83.9227 145.875 83.8719 145.894 83.8185C145.913 83.7651 145.945 83.725 145.993 83.6903C146.033 83.6555 146.078 83.6261 146.126 83.6048C146.171 83.5754 146.23 83.5594 146.31 83.546C146.389 83.53 146.459 83.5166 146.517 83.5059C146.568 83.4952 146.65 83.4899 146.749 83.4819C146.853 83.4819 146.933 83.4765 146.986 83.4765H147.476C147.527 83.4765 147.609 83.4819 147.708 83.4819C147.812 83.4872 147.891 83.4926 147.945 83.5059C148.003 83.5166 148.073 83.53 148.147 83.546C148.227 83.5567 148.291 83.5754 148.336 83.6048C148.382 83.6288 148.421 83.6555 148.469 83.6903C148.515 83.725 148.544 83.7651 148.568 83.8185C148.584 83.8692 148.597 83.9227 148.597 83.9868C148.597 84.1844 148.608 84.489 148.627 84.9057C148.643 85.3171 148.651 85.635 148.651 85.854C148.651 86.5299 148.635 87.1202 148.592 87.6331C148.592 87.8175 148.493 87.9457 148.299 88.0098C148.097 88.0793 147.745 88.114 147.239 88.1247H147.231ZM147.22 88.8646C147.622 88.8646 147.953 88.8486 148.216 88.8192C148.483 88.7845 148.706 88.715 148.896 88.6055C149.085 88.5013 149.236 88.3865 149.332 88.2582C149.436 88.13 149.516 87.9403 149.575 87.6679C149.633 87.4007 149.668 87.1416 149.679 86.8825C149.689 86.6234 149.695 86.2574 149.695 85.7899C149.695 85.4426 149.689 85.1541 149.684 84.9217C149.673 84.6893 149.655 84.4596 149.62 84.2406C149.585 84.0162 149.545 83.8372 149.5 83.6983C149.455 83.5594 149.386 83.4311 149.292 83.3056C149.199 83.1854 149.095 83.0919 148.986 83.0278C148.872 82.9583 148.728 82.9076 148.549 82.8541C148.371 82.8087 148.182 82.774 147.974 82.7606C147.766 82.7446 147.513 82.7366 147.226 82.7366C146.938 82.7366 146.69 82.7419 146.483 82.7606C146.275 82.7713 146.08 82.806 145.907 82.8541C145.729 82.9049 145.585 82.9583 145.471 83.0278C145.356 83.0919 145.258 83.1827 145.164 83.3056C145.071 83.4338 145.002 83.5594 144.957 83.6983C144.906 83.8372 144.863 84.0162 144.837 84.2406C144.802 84.4596 144.786 84.692 144.773 84.9217C144.767 85.1541 144.762 85.4426 144.762 85.7899C144.762 86.2574 144.767 86.6234 144.778 86.8825C144.789 87.1416 144.823 87.4034 144.882 87.6679C144.941 87.9403 145.02 88.13 145.119 88.2582C145.218 88.3784 145.361 88.496 145.556 88.6055C145.745 88.715 145.971 88.7845 146.235 88.8192C146.501 88.8486 146.829 88.8646 147.22 88.8646ZM158.217 82.8995H157.162L156.097 87.5343L154.898 82.8995H153.953L152.667 87.5343L151.612 82.8995H150.603L152.142 88.7845H153.221L154.438 84.31L155.716 88.7845H156.691L158.217 82.8995ZM163.916 85.7605C163.916 85.4186 163.911 85.1354 163.906 84.9111C163.9 84.6786 163.882 84.4596 163.855 84.2352C163.826 84.0162 163.786 83.8372 163.746 83.7036C163.701 83.57 163.637 83.4365 163.549 83.3163C163.469 83.188 163.37 83.0972 163.261 83.0331C163.152 82.9637 163.013 82.9129 162.846 82.8595C162.678 82.806 162.494 82.774 162.297 82.7606C162.095 82.7446 161.86 82.7366 161.583 82.7366C161.192 82.7366 160.864 82.7473 160.609 82.7767C160.35 82.8114 160.124 82.8808 159.94 82.985C159.751 83.0945 159.604 83.2094 159.509 83.3323C159.415 83.4605 159.335 83.6609 159.285 83.9387C159.226 84.2165 159.192 84.4943 159.176 84.7641C159.165 85.0419 159.16 85.4239 159.16 85.9208C159.16 86.2681 159.165 86.5459 159.17 86.7409C159.181 86.9386 159.205 87.163 159.234 87.4061C159.269 87.6492 159.32 87.8281 159.389 87.9564C159.458 88.0846 159.551 88.2155 159.671 88.3491C159.791 88.488 159.948 88.5868 160.132 88.6509C160.321 88.7097 160.547 88.7604 160.811 88.8005C161.077 88.8406 161.381 88.8646 161.738 88.8646C162.02 88.8646 162.252 88.8593 162.441 88.8406C162.63 88.8246 162.803 88.7898 162.96 88.7417C163.115 88.691 163.242 88.6269 163.336 88.5521C163.429 88.4719 163.509 88.3678 163.573 88.2342C163.642 88.1006 163.693 87.951 163.722 87.7774C163.746 87.6038 163.767 87.39 163.772 87.1416L162.955 86.992C162.944 87.0668 162.931 87.155 162.926 87.2698C162.92 87.3794 162.915 87.4675 162.91 87.5236C162.899 87.5744 162.88 87.6438 162.859 87.7266C162.838 87.8094 162.795 87.8655 162.744 87.9003C162.694 87.9403 162.625 87.9804 162.531 88.0205C162.438 88.0606 162.324 88.0899 162.175 88.106C162.031 88.1167 161.858 88.13 161.65 88.13C161.109 88.13 160.744 88.0899 160.561 88.0151C160.371 87.9403 160.273 87.7774 160.249 87.5423C160.225 86.9226 160.214 86.3509 160.209 85.838H163.125C163.229 85.8327 163.493 85.8033 163.922 85.7632L163.916 85.7605ZM160.212 85.269V84.9805C160.217 84.8363 160.217 84.7321 160.222 84.6626C160.222 84.5932 160.228 84.4943 160.238 84.3688C160.249 84.2405 160.262 84.1444 160.278 84.0749C160.289 84.0001 160.313 83.9253 160.342 83.8425C160.371 83.757 160.406 83.6929 160.451 83.6529C160.497 83.6074 160.55 83.5781 160.614 83.554C160.747 83.5033 161.069 83.4739 161.575 83.4739C162.036 83.4739 162.353 83.5086 162.526 83.5834C162.699 83.6529 162.792 83.8024 162.808 84.0162C162.838 84.3982 162.854 84.8149 162.859 85.2717H160.209L160.212 85.269ZM167.956 82.766C167.877 82.7553 167.794 82.7499 167.714 82.7499C167.402 82.7499 167.131 82.8247 166.907 82.9636C166.683 83.1026 166.516 83.3056 166.406 83.5594L166.303 82.8995H165.346V88.7845H166.396V86.2574C166.396 86.1372 166.39 85.9342 166.38 85.651C166.369 85.3679 166.364 85.1541 166.364 85.0099C166.364 84.7508 166.374 84.5424 166.404 84.3848C166.428 84.2299 166.484 84.091 166.566 83.9681C166.649 83.8452 166.763 83.7597 166.918 83.709C167.08 83.6635 167.28 83.6342 167.536 83.6342C167.655 83.6342 167.783 83.6448 167.922 83.6635L167.962 82.7686L167.956 82.766ZM170.284 88.7845V82.8995H169.229V88.7845H170.284ZM170.284 80.6289H169.229V81.5532H170.284V80.6289ZM176.612 88.7845V85.5174C176.612 85.2503 176.612 85.0259 176.601 84.8363C176.596 84.6466 176.585 84.4489 176.561 84.2592C176.537 84.0696 176.511 83.9066 176.468 83.7731C176.428 83.6448 176.383 83.5193 176.319 83.3964C176.255 83.2735 176.181 83.1774 176.087 83.1026C175.994 83.0278 175.885 82.9583 175.765 82.8995C175.637 82.8408 175.493 82.7954 175.334 82.7713C175.179 82.7473 174.993 82.7366 174.785 82.7366C174.348 82.7366 173.967 82.8007 173.65 82.9263C173.334 83.0545 173.131 83.2682 173.041 83.5567L172.937 82.8969H171.975V88.7818H173.03V85.643C173.03 85.5041 173.025 85.3144 173.014 85.082C173.003 84.8496 172.998 84.6893 172.998 84.5958C172.998 84.4329 173.009 84.294 173.038 84.1791C173.062 84.0696 173.107 83.9654 173.171 83.8666C173.24 83.7677 173.334 83.6983 173.453 83.6422C173.573 83.5914 173.73 83.5487 173.919 83.5139C174.109 83.4846 174.34 83.4739 174.612 83.4739H174.913C174.987 83.4792 175.062 83.4899 175.137 83.5139C175.211 83.538 175.27 83.5647 175.31 83.5887C175.35 83.6128 175.384 83.6582 175.424 83.733C175.459 83.8024 175.488 83.8719 175.499 83.9414C175.515 84.0108 175.528 84.115 175.539 84.2539C175.549 84.3928 175.563 84.5317 175.563 84.6706V88.7818H176.617L176.612 88.7845ZM182.86 82.8995H181.904L181.8 83.554C181.672 83.2762 181.464 83.0678 181.182 82.9423C180.905 82.8141 180.53 82.7526 180.064 82.7526C179.787 82.7526 179.55 82.7767 179.355 82.8167C179.153 82.8515 178.988 82.9022 178.836 82.961C178.692 83.0251 178.569 83.1239 178.479 83.2682C178.394 83.4071 178.316 83.546 178.261 83.6849C178.202 83.8185 178.162 84.0215 178.141 84.286C178.111 84.5531 178.101 84.8015 178.09 85.0313C178.085 85.2557 178.079 85.5735 178.079 85.9796C178.079 86.2975 178.085 86.5459 178.09 86.7302C178.101 86.9146 178.119 87.1229 178.149 87.3553C178.173 87.5877 178.218 87.7587 178.282 87.8869C178.34 88.0071 178.426 88.1407 178.53 88.2743C178.633 88.4132 178.767 88.5174 178.926 88.5815C179.089 88.6456 179.283 88.6963 179.51 88.7444C179.741 88.7845 180.005 88.8085 180.311 88.8085C180.737 88.8085 181.073 88.7498 181.307 88.6349C181.544 88.52 181.704 88.341 181.803 88.0846L181.808 89.049C181.808 89.1692 181.803 89.268 181.784 89.3428C181.768 89.4229 181.733 89.5057 181.675 89.5859C181.624 89.666 181.542 89.7248 181.438 89.7702C181.339 89.8103 181.195 89.845 181.017 89.8744C180.839 89.9038 180.62 89.9198 180.359 89.9198C179.805 89.9198 179.334 89.861 178.937 89.7515L178.868 90.4808C179.283 90.6304 179.837 90.6998 180.532 90.6998C180.868 90.6998 181.156 90.6838 181.398 90.6491C181.635 90.6144 181.843 90.5502 182.021 90.4594C182.194 90.3606 182.338 90.251 182.442 90.1228C182.551 90.0026 182.639 89.829 182.7 89.6206C182.759 89.4069 182.804 89.1825 182.828 88.9394C182.852 88.6963 182.863 88.3971 182.863 88.0445V82.9049L182.86 82.8995ZM181.805 87.5877C181.771 87.9056 181.355 88.0686 180.562 88.0686C180.165 88.0686 179.874 88.0525 179.691 88.0232C179.507 87.9938 179.374 87.9377 179.294 87.8602C179.219 87.7801 179.179 87.6572 179.166 87.4835C179.137 86.7195 179.121 85.8193 179.121 84.7828C179.121 84.0936 179.225 83.7009 179.422 83.6101C179.605 83.5166 179.952 83.4765 180.447 83.4765C180.942 83.4765 181.313 83.5407 181.512 83.6662C181.709 83.7998 181.805 84.0135 181.805 84.3127V87.5851V87.5877ZM191.603 80.7945H190.456L188.687 84.887L186.953 80.7945H185.766L188.112 86.0036V88.7845H189.191V86.0036L191.606 80.7945H191.603ZM194.461 88.1247C193.971 88.1247 193.62 88.0899 193.412 88.0205C193.204 87.951 193.095 87.8175 193.095 87.6331C193.06 87.1176 193.036 86.5299 193.036 85.854C193.036 85.635 193.047 85.3171 193.066 84.9057C193.082 84.489 193.09 84.1844 193.09 83.9868C193.09 83.9227 193.1 83.8719 193.124 83.8185C193.14 83.7677 193.175 83.725 193.217 83.6903C193.263 83.6555 193.311 83.6261 193.351 83.6048C193.396 83.5754 193.46 83.5594 193.54 83.546C193.62 83.53 193.689 83.5166 193.742 83.5059C193.801 83.4952 193.875 83.4899 193.979 83.4819C194.083 83.4819 194.158 83.4765 194.216 83.4765H194.701C194.759 83.4765 194.834 83.4819 194.938 83.4819C195.042 83.4872 195.116 83.4926 195.175 83.5059C195.233 83.5166 195.295 83.53 195.377 83.546C195.457 83.5567 195.521 83.5754 195.566 83.6048C195.606 83.6288 195.652 83.6555 195.7 83.6903C195.745 83.725 195.774 83.7651 195.798 83.8185C195.814 83.8692 195.827 83.9227 195.827 83.9868C195.827 84.1844 195.833 84.489 195.851 84.9057C195.867 85.3171 195.881 85.635 195.881 85.854C195.881 86.5299 195.865 87.1202 195.822 87.6331C195.822 87.8175 195.723 87.9457 195.521 88.0098C195.324 88.0793 194.972 88.114 194.466 88.1247H194.461ZM194.45 88.8646C194.847 88.8646 195.183 88.8486 195.447 88.8192C195.705 88.7845 195.937 88.715 196.126 88.6055C196.315 88.5013 196.461 88.3865 196.562 88.2582C196.666 88.13 196.741 87.9403 196.799 87.6679C196.858 87.4007 196.893 87.1416 196.903 86.8825C196.919 86.6234 196.927 86.2574 196.927 85.7899C196.927 85.4426 196.922 85.1541 196.911 84.9217C196.906 84.6893 196.882 84.4596 196.853 84.2406C196.818 84.0162 196.778 83.8372 196.733 83.6983C196.682 83.5594 196.613 83.4311 196.525 83.3056C196.432 83.1854 196.328 83.0919 196.214 83.0278C196.099 82.9583 195.955 82.9076 195.782 82.8541C195.604 82.8087 195.415 82.774 195.199 82.7606C194.991 82.7446 194.743 82.7366 194.456 82.7366C194.168 82.7366 193.92 82.7419 193.713 82.7606C193.5 82.7713 193.311 82.806 193.129 82.8541C192.956 82.9049 192.813 82.9583 192.698 83.0278C192.584 83.0919 192.48 83.1827 192.386 83.3056C192.301 83.4338 192.232 83.5594 192.179 83.6983C192.133 83.8372 192.093 84.0162 192.059 84.2406C192.03 84.4596 192.008 84.692 192 84.9217C191.99 85.1541 191.984 85.4426 191.984 85.7899C191.984 86.2574 191.995 86.6234 192.008 86.8825C192.022 87.1416 192.054 87.4034 192.112 87.6679C192.171 87.9403 192.245 88.13 192.349 88.2582C192.448 88.3784 192.592 88.496 192.781 88.6055C192.97 88.715 193.201 88.7845 193.468 88.8192C193.726 88.8486 194.056 88.8646 194.453 88.8646H194.45ZM203.042 88.7898V82.8995H201.977V86.7329C201.977 86.7783 201.982 86.8531 201.982 86.952V87.1603C201.982 87.2885 201.977 87.3981 201.966 87.4835C201.95 87.5637 201.921 87.6572 201.868 87.7427C201.822 87.8281 201.753 87.9056 201.66 87.9564C201.567 88.0071 201.441 88.0499 201.279 88.0766C201.117 88.1113 200.922 88.1273 200.696 88.1273C200.488 88.1273 200.328 88.122 200.195 88.1113C200.062 88.1006 199.947 88.0766 199.849 88.0365C199.75 87.9964 199.676 87.9564 199.625 87.9029C199.58 87.8575 199.54 87.7827 199.505 87.6786C199.476 87.5744 199.46 87.4702 199.455 87.3607C199.444 87.2565 199.444 87.1069 199.444 86.9146V86.6314C199.444 86.4978 199.449 86.3936 199.449 86.3135V82.8969H198.395V86.3482C198.395 86.7356 198.411 87.0535 198.44 87.3126C198.469 87.5717 198.52 87.8095 198.602 88.0178C198.677 88.2262 198.786 88.3865 198.925 88.504C199.069 88.6189 199.242 88.7124 199.455 88.7711C199.662 88.8352 199.921 88.8646 200.227 88.8646C200.677 88.8646 201.058 88.7952 201.367 88.6616C201.679 88.5227 201.881 88.3143 201.971 88.0312L202.07 88.7872H203.045L203.042 88.7898ZM211.213 81.6226V80.7972H206.009V81.6226H208.044V88.7845H209.133V81.6226H211.213ZM216.734 88.7845V85.0606C216.739 84.9057 216.739 84.7935 216.739 84.7321C216.739 84.5691 216.734 84.4382 216.729 84.334C216.729 84.2245 216.718 84.1016 216.699 83.9814C216.683 83.8532 216.659 83.749 216.63 83.6635C216.601 83.5781 216.566 83.4899 216.516 83.3964C216.465 83.3029 216.406 83.2281 216.332 83.172C216.262 83.1079 216.177 83.0518 216.079 82.993C215.98 82.9343 215.86 82.8889 215.733 82.8595C215.599 82.8247 215.45 82.7954 215.277 82.774C215.109 82.7499 214.92 82.7393 214.707 82.7393C213.906 82.7393 213.37 82.9423 213.117 83.3457V80.7331L212.057 80.8132V88.7845H213.117V85.7151C213.117 85.1996 213.141 84.6226 213.192 83.9814C213.197 83.8879 213.237 83.8078 213.306 83.7383C213.381 83.6689 213.474 83.6181 213.583 83.5834C213.698 83.5433 213.82 83.5193 213.945 83.5033C214.073 83.4872 214.204 83.4792 214.348 83.4792C214.654 83.4792 214.888 83.4899 215.061 83.5139C215.24 83.538 215.373 83.5887 215.472 83.6635C215.57 83.7383 215.626 83.8265 215.655 83.9227C215.685 84.0162 215.695 84.1551 215.695 84.334C215.695 84.3982 215.69 84.5317 215.69 84.7267C215.685 84.9244 215.679 85.0847 215.679 85.2129V88.7845H216.734ZM220.982 82.766C220.897 82.7553 220.814 82.7499 220.739 82.7499C220.422 82.7499 220.156 82.8247 219.932 82.9636C219.709 83.1026 219.541 83.3056 219.432 83.5594L219.323 82.8995H218.366V88.7845H219.421V86.2574C219.421 86.1372 219.416 85.9342 219.397 85.651C219.386 85.3679 219.381 85.1541 219.381 85.0099C219.381 84.7508 219.392 84.5424 219.421 84.3848C219.45 84.2272 219.501 84.091 219.584 83.9681C219.666 83.8452 219.781 83.7597 219.94 83.709C220.095 83.6635 220.297 83.6342 220.55 83.6342C220.67 83.6342 220.803 83.6448 220.937 83.6635L220.982 82.7686V82.766ZM224.417 88.1247C223.927 88.1247 223.576 88.0899 223.368 88.0205C223.16 87.951 223.056 87.8175 223.056 87.6331C223.017 87.1176 222.993 86.5299 222.993 85.854C222.993 85.635 223.003 85.3171 223.022 84.9057C223.038 84.489 223.051 84.1844 223.051 83.9868C223.051 83.9227 223.056 83.8719 223.08 83.8185C223.096 83.7677 223.131 83.725 223.174 83.6903C223.219 83.6555 223.267 83.6261 223.312 83.6048C223.352 83.5754 223.416 83.5594 223.496 83.546C223.576 83.53 223.645 83.5166 223.698 83.5059C223.757 83.4952 223.837 83.4899 223.935 83.4819C224.039 83.4819 224.114 83.4765 224.172 83.4765H224.657C224.716 83.4765 224.796 83.4819 224.894 83.4819C224.998 83.4872 225.073 83.4926 225.131 83.5059C225.19 83.5166 225.251 83.53 225.334 83.546C225.413 83.5567 225.477 83.5754 225.523 83.6048C225.563 83.6288 225.608 83.6555 225.656 83.6903C225.701 83.725 225.73 83.7651 225.754 83.8185C225.77 83.8692 225.784 83.9227 225.784 83.9868C225.784 84.1844 225.789 84.489 225.808 84.9057C225.824 85.3171 225.837 85.635 225.837 85.854C225.837 86.5299 225.821 87.1202 225.778 87.6331C225.778 87.8175 225.68 87.9457 225.477 88.0098C225.28 88.0793 224.929 88.114 224.423 88.1247H224.417ZM224.407 88.8646C224.809 88.8646 225.139 88.8486 225.403 88.8192C225.669 88.7845 225.893 88.715 226.082 88.6055C226.271 88.5013 226.423 88.3865 226.519 88.2582C226.623 88.13 226.702 87.9403 226.756 87.6679C226.814 87.4007 226.849 87.1416 226.865 86.8825C226.876 86.6234 226.881 86.2574 226.881 85.7899C226.881 85.4426 226.876 85.1541 226.865 84.9217C226.86 84.6893 226.836 84.4596 226.806 84.2406C226.772 84.0162 226.732 83.8372 226.686 83.6983C226.641 83.5594 226.572 83.4311 226.479 83.3056C226.386 83.1854 226.282 83.0919 226.167 83.0278C226.058 82.9583 225.909 82.9076 225.736 82.8541C225.557 82.8087 225.368 82.774 225.16 82.7606C224.947 82.7446 224.7 82.7366 224.412 82.7366C224.124 82.7366 223.877 82.7419 223.669 82.7606C223.461 82.7713 223.267 82.806 223.094 82.8541C222.915 82.9049 222.771 82.9583 222.657 83.0278C222.542 83.0919 222.439 83.1827 222.351 83.3056C222.257 83.4338 222.188 83.5594 222.138 83.6983C222.092 83.8372 222.052 84.0162 222.023 84.2406C221.988 84.4596 221.965 84.692 221.959 84.9217C221.949 85.1541 221.949 85.4426 221.949 85.7899C221.949 86.2574 221.954 86.6234 221.965 86.8825C221.975 87.1416 222.01 87.4034 222.068 87.6679C222.127 87.9403 222.202 88.13 222.305 88.2582C222.404 88.3784 222.548 88.496 222.737 88.6055C222.926 88.715 223.158 88.7845 223.424 88.8192C223.682 88.8486 224.018 88.8646 224.409 88.8646H224.407ZM232.998 88.7898V82.8995H231.933V86.7329C231.933 86.7783 231.938 86.8531 231.938 86.952V87.1603C231.938 87.2885 231.933 87.3981 231.922 87.4835C231.906 87.5637 231.877 87.6572 231.824 87.7427C231.779 87.8281 231.709 87.9056 231.616 87.9564C231.523 88.0071 231.398 88.0499 231.235 88.0766C231.073 88.1113 230.878 88.1273 230.652 88.1273C230.45 88.1273 230.285 88.122 230.151 88.1113C230.024 88.1006 229.909 88.0766 229.805 88.0365C229.707 87.9964 229.632 87.9564 229.581 87.9029C229.536 87.8575 229.496 87.7827 229.462 87.6786C229.432 87.5744 229.416 87.4702 229.411 87.3607C229.4 87.2565 229.4 87.1069 229.4 86.9146V86.6314C229.406 86.4978 229.406 86.3936 229.406 86.3135V82.8969H228.351V86.3482C228.351 86.7356 228.367 87.0535 228.396 87.3126C228.426 87.5717 228.476 87.8095 228.559 88.0178C228.633 88.2262 228.742 88.3865 228.881 88.504C229.025 88.6189 229.198 88.7124 229.411 88.7711C229.619 88.8352 229.877 88.8646 230.183 88.8646C230.633 88.8646 231.014 88.7952 231.323 88.6616C231.635 88.5227 231.837 88.3143 231.933 88.0312L232.026 88.7872H233.001L232.998 88.7898ZM239.257 82.8995H238.301L238.202 83.554C238.075 83.2762 237.867 83.0678 237.584 82.9423C237.302 82.8141 236.927 82.7526 236.461 82.7526C236.189 82.7526 235.955 82.7767 235.752 82.8167C235.555 82.8515 235.385 82.9022 235.238 82.961C235.089 83.0251 234.972 83.1239 234.881 83.2682C234.788 83.4071 234.719 83.546 234.663 83.6849C234.604 83.8185 234.564 84.0215 234.535 84.286C234.511 84.5531 234.495 84.8015 234.49 85.0313C234.484 85.2557 234.479 85.5735 234.479 85.9796C234.479 86.2975 234.484 86.5459 234.49 86.7302C234.495 86.9146 234.514 87.1229 234.54 87.3553C234.57 87.5877 234.615 87.7587 234.674 87.8869C234.737 88.0071 234.817 88.1407 234.927 88.2743C235.03 88.4132 235.164 88.5174 235.323 88.5815C235.478 88.6456 235.675 88.6963 235.907 88.7444C236.13 88.7845 236.402 88.8085 236.708 88.8085C237.134 88.8085 237.47 88.7498 237.704 88.6349C237.936 88.52 238.101 88.341 238.2 88.0846L238.205 89.049C238.205 89.1692 238.194 89.268 238.181 89.3428C238.165 89.4229 238.13 89.5057 238.072 89.5859C238.013 89.666 237.939 89.7248 237.835 89.7702C237.736 89.8103 237.592 89.845 237.414 89.8744C237.236 89.9038 237.012 89.9198 236.751 89.9198C236.202 89.9198 235.731 89.861 235.334 89.7515L235.259 90.4808C235.675 90.6304 236.234 90.6998 236.932 90.6998C237.268 90.6998 237.555 90.6838 237.79 90.6491C238.032 90.6144 238.24 90.5502 238.413 90.4594C238.591 90.3606 238.735 90.251 238.839 90.1228C238.948 90.0026 239.028 89.829 239.092 89.6206C239.156 89.4069 239.196 89.1825 239.22 88.9394C239.244 88.6963 239.254 88.3971 239.254 88.0445V82.9049L239.257 82.8995ZM238.208 87.5877C238.173 87.9056 237.752 88.0686 236.964 88.0686C236.567 88.0686 236.272 88.0525 236.088 88.0232C235.904 87.9938 235.771 87.9377 235.696 87.8602C235.622 87.7801 235.576 87.6572 235.563 87.4835C235.534 86.7195 235.523 85.8193 235.523 84.7828C235.523 84.0936 235.622 83.7009 235.824 83.6101C236.008 83.5166 236.349 83.4765 236.849 83.4765C237.35 83.4765 237.715 83.5407 237.909 83.6662C238.112 83.7998 238.21 84.0135 238.21 84.3127V87.5851L238.208 87.5877ZM245.566 88.7845V85.4079C245.566 85.3278 245.566 85.2102 245.572 85.0606V84.7321C245.572 84.5691 245.572 84.4382 245.566 84.334C245.561 84.2245 245.55 84.1016 245.532 83.9814C245.516 83.8532 245.497 83.749 245.468 83.6635C245.438 83.5781 245.398 83.4899 245.348 83.3964C245.303 83.3029 245.239 83.2281 245.169 83.172C245.095 83.1079 245.007 83.0518 244.911 82.993C244.813 82.9343 244.698 82.8889 244.565 82.8595C244.432 82.8247 244.283 82.7954 244.109 82.774C243.942 82.7499 243.753 82.7393 243.545 82.7393C242.738 82.7393 242.208 82.9423 241.95 83.3457V80.7331L240.89 80.8132V88.7845H241.95V85.7151C241.95 85.1996 241.974 84.6226 242.024 83.9814C242.029 83.8879 242.069 83.8078 242.144 83.7383C242.213 83.6689 242.306 83.6181 242.421 83.5834C242.535 83.5433 242.653 83.5193 242.778 83.5033C242.906 83.4872 243.044 83.4792 243.18 83.4792C243.486 83.4792 243.721 83.4899 243.899 83.5139C244.072 83.538 244.211 83.5887 244.301 83.6635C244.4 83.7383 244.464 83.8265 244.485 83.9227C244.514 84.0162 244.525 84.1551 244.525 84.334C244.525 84.3982 244.525 84.5317 244.52 84.7267C244.514 84.9244 244.509 85.0847 244.509 85.2129V88.7845H245.564H245.566ZM254.078 86.3055C254.078 86.3456 254.073 86.391 254.067 86.4391C254.067 86.4845 254.062 86.5245 254.062 86.5539C254.062 86.5833 254.057 86.6234 254.057 86.6688C254.041 86.9012 254.027 87.0615 254.017 87.155C254.001 87.2538 253.977 87.3687 253.937 87.5076C253.897 87.6465 253.838 87.7453 253.769 87.7908C253.705 87.8362 253.607 87.8949 253.476 87.9537C253.348 88.0125 253.194 88.0472 253.005 88.0632C252.816 88.0793 252.579 88.0873 252.302 88.0873C251.782 88.0873 251.38 88.0579 251.098 87.9884C250.816 87.919 250.626 87.8255 250.528 87.7106C250.429 87.6011 250.373 87.4381 250.355 87.2378C250.32 86.5833 250.304 85.9128 250.304 85.2263C250.304 84.2432 250.32 83.2789 250.355 82.3359C250.36 82.2077 250.379 82.0981 250.413 82.0073C250.448 81.9138 250.507 81.839 250.581 81.7749C250.661 81.7108 250.749 81.6654 250.84 81.6253C250.925 81.5906 251.053 81.5612 251.215 81.5398C251.369 81.5238 251.532 81.5104 251.686 81.5051C251.849 81.4998 252.049 81.4944 252.296 81.4944H252.706C252.8 81.4944 252.909 81.4998 253.034 81.5104C253.162 81.5211 253.252 81.5345 253.306 81.5452C253.364 81.5559 253.434 81.5799 253.513 81.6146C253.593 81.644 253.652 81.6787 253.681 81.7135C253.71 81.7535 253.75 81.807 253.801 81.8764C253.852 81.9459 253.881 82.0153 253.9 82.0901C253.916 82.1596 253.94 82.2584 253.963 82.3733C253.993 82.4935 254.009 82.6164 254.027 82.7366C254.038 82.8568 254.057 83.0091 254.073 83.188L255.013 83.0091C254.984 82.6725 254.949 82.3893 254.893 82.1542C254.842 81.9165 254.765 81.7081 254.669 81.5345C254.571 81.3555 254.456 81.2166 254.328 81.1071C254.201 80.9975 254.035 80.9094 253.838 80.848C253.636 80.7785 253.423 80.7331 253.194 80.709C252.97 80.685 252.693 80.6743 252.363 80.6743C252.051 80.6743 251.774 80.6797 251.54 80.6903C251.303 80.701 251.079 80.7304 250.877 80.7705C250.669 80.8106 250.491 80.856 250.347 80.8987C250.203 80.9388 250.07 81.0136 249.95 81.1178C249.83 81.2273 249.732 81.3261 249.657 81.4196C249.582 81.5131 249.513 81.652 249.455 81.8364C249.396 82.026 249.356 82.1997 249.327 82.3573C249.297 82.5122 249.282 82.7339 249.258 83.0224C249.242 83.3056 249.228 83.5727 249.228 83.8131C249.223 84.0562 249.223 84.3795 249.223 84.7775C249.223 85.1755 249.223 85.4533 249.228 85.667C249.228 85.8807 249.239 86.1292 249.258 86.4177C249.274 86.7008 249.297 86.9199 249.327 87.0722C249.351 87.2218 249.396 87.3954 249.447 87.5984C249.505 87.7961 249.574 87.9403 249.654 88.0365C249.734 88.1354 249.833 88.2449 249.955 88.3651C250.07 88.4853 250.208 88.5735 250.365 88.6242C250.523 88.675 250.701 88.7284 250.914 88.7872C251.122 88.8379 251.351 88.8726 251.607 88.8913C251.86 88.9074 252.142 88.9154 252.464 88.9154C252.786 88.9154 253.087 88.9047 253.322 88.8753C253.559 88.8459 253.772 88.7952 253.961 88.7204C254.15 88.6456 254.312 88.5467 254.432 88.4319C254.552 88.317 254.651 88.1647 254.739 87.9751C254.818 87.7854 254.882 87.5717 254.928 87.3286C254.968 87.0855 254.997 86.797 255.021 86.4551L254.086 86.3108L254.078 86.3055ZM258.717 88.1273C258.227 88.1273 257.876 88.0926 257.668 88.0232C257.46 87.9537 257.356 87.8201 257.356 87.6358C257.317 87.1202 257.298 86.5326 257.298 85.8567C257.298 85.6377 257.303 85.3198 257.322 84.9084C257.338 84.4917 257.351 84.1871 257.351 83.9894C257.351 83.9253 257.362 83.8746 257.38 83.8211C257.399 83.7677 257.431 83.7277 257.479 83.6929C257.519 83.6582 257.564 83.6288 257.612 83.6074C257.657 83.5781 257.716 83.562 257.796 83.5487C257.876 83.5326 257.945 83.5193 258.004 83.5086C258.054 83.4979 258.137 83.4926 258.235 83.4846C258.339 83.4846 258.419 83.4792 258.472 83.4792H258.962C259.013 83.4792 259.096 83.4846 259.199 83.4846C259.298 83.4899 259.378 83.4952 259.431 83.5086C259.49 83.5193 259.559 83.5326 259.639 83.5487C259.719 83.5594 259.777 83.5781 259.823 83.6074C259.868 83.6315 259.916 83.6582 259.956 83.6929C260.001 83.7277 260.036 83.7677 260.054 83.8211C260.07 83.8719 260.084 83.9253 260.084 83.9894C260.084 84.1871 260.094 84.4917 260.113 84.9084C260.129 85.3198 260.137 85.6377 260.137 85.8567C260.137 86.5326 260.121 87.1229 260.078 87.6358C260.078 87.8201 259.98 87.9484 259.785 88.0125C259.583 88.0819 259.231 88.1167 258.725 88.1273H258.717ZM258.712 88.8673C259.109 88.8673 259.439 88.8513 259.703 88.8219C259.969 88.7872 260.193 88.7177 260.382 88.6082C260.579 88.504 260.723 88.3891 260.819 88.2609C260.923 88.1327 261.002 87.943 261.061 87.6705C261.12 87.4034 261.154 87.1443 261.165 86.8852C261.176 86.6261 261.181 86.2601 261.181 85.7926C261.181 85.4453 261.176 85.1568 261.17 84.9244C261.16 84.692 261.141 84.4623 261.106 84.2432C261.077 84.0188 261.037 83.8398 260.986 83.7009C260.941 83.562 260.872 83.4338 260.779 83.3083C260.686 83.188 260.59 83.0945 260.472 83.0304C260.358 82.961 260.214 82.9102 260.036 82.8568C259.863 82.8114 259.668 82.7767 259.46 82.7633C259.253 82.7473 259.005 82.7393 258.717 82.7393C258.43 82.7393 258.177 82.7446 257.969 82.7633C257.761 82.774 257.572 82.8087 257.394 82.8568C257.215 82.9076 257.072 82.961 256.957 83.0304C256.842 83.0945 256.744 83.1854 256.651 83.3083C256.558 83.4365 256.488 83.562 256.443 83.7009C256.392 83.8398 256.35 84.0188 256.323 84.2432C256.289 84.4623 256.273 84.6947 256.259 84.9244C256.254 85.1568 256.249 85.4453 256.249 85.7926C256.249 86.2601 256.254 86.6261 256.265 86.8852C256.275 87.1443 256.31 87.4061 256.368 87.6705C256.427 87.943 256.507 88.1327 256.605 88.2609C256.704 88.3811 256.853 88.4987 257.042 88.6082C257.231 88.7177 257.458 88.7872 257.721 88.8219C257.988 88.8513 258.315 88.8673 258.712 88.8673ZM267.304 88.7872V85.5201C267.304 85.253 267.304 85.0286 267.298 84.8389C267.288 84.6493 267.274 84.4516 267.253 84.2619C267.229 84.0723 267.203 83.9093 267.16 83.7757C267.125 83.6475 267.075 83.522 267.011 83.3991C266.947 83.2762 266.872 83.18 266.779 83.1052C266.686 83.0304 266.582 82.961 266.457 82.9022C266.329 82.8434 266.185 82.798 266.031 82.774C265.868 82.7499 265.684 82.7393 265.477 82.7393C265.04 82.7393 264.659 82.8034 264.342 82.9289C264.025 83.0545 263.823 83.2709 263.732 83.5594L263.628 82.8995H262.667V88.7845H263.722V85.6457C263.722 85.5068 263.716 85.3171 263.706 85.0847C263.695 84.8523 263.69 84.692 263.69 84.5985C263.69 84.4356 263.7 84.2966 263.73 84.1818C263.754 84.0723 263.799 83.9681 263.863 83.8692C263.932 83.7704 264.025 83.7009 264.145 83.6448C264.265 83.5941 264.422 83.5513 264.611 83.5166C264.8 83.4872 265.032 83.4765 265.304 83.4765H265.605C265.679 83.4819 265.754 83.4926 265.828 83.5166C265.903 83.5407 265.961 83.5674 266.001 83.5914C266.041 83.6155 266.081 83.6609 266.116 83.7357C266.156 83.8051 266.18 83.8746 266.191 83.944C266.206 84.0135 266.22 84.1177 266.23 84.2566C266.246 84.3955 266.254 84.5344 266.254 84.6733C266.254 84.8122 266.26 84.9912 266.26 85.2236V88.7845H267.309L267.304 88.7872ZM273.269 82.9022H272.18L270.763 87.8682L269.328 82.9022H268.337L270.18 88.7872H271.328L273.269 82.9022ZM278.889 85.7632C278.889 85.4213 278.884 85.1381 278.878 84.9137C278.873 84.6813 278.854 84.4623 278.828 84.2379C278.798 84.0188 278.758 83.8399 278.718 83.7063C278.673 83.5727 278.609 83.4391 278.521 83.3189C278.441 83.1907 278.343 83.0999 278.234 83.0358C278.125 82.9663 277.986 82.9156 277.818 82.8621C277.65 82.8087 277.467 82.7767 277.27 82.7633C277.067 82.7473 276.833 82.7393 276.556 82.7393C276.164 82.7393 275.837 82.7499 275.581 82.7793C275.323 82.8141 275.096 82.8835 274.913 82.9877C274.724 83.0972 274.577 83.2121 274.481 83.335C274.388 83.4632 274.308 83.6635 274.257 83.9414C274.199 84.2192 274.164 84.497 274.148 84.7668C274.138 85.0446 274.132 85.4266 274.132 85.9235C274.132 86.2708 274.138 86.5486 274.143 86.7436C274.154 86.9413 274.178 87.1657 274.207 87.4087C274.242 87.6518 274.292 87.8308 274.361 87.959C274.431 88.0873 274.524 88.2182 274.644 88.3517C274.764 88.4906 274.921 88.5895 275.104 88.6536C275.293 88.7124 275.52 88.7631 275.784 88.8032C276.05 88.8433 276.353 88.8673 276.71 88.8673C276.993 88.8673 277.224 88.862 277.413 88.8433C277.603 88.8272 277.776 88.7925 277.933 88.7444C278.087 88.6937 278.215 88.6296 278.308 88.5548C278.402 88.4746 278.481 88.3704 278.545 88.2369C278.615 88.1033 278.665 87.9537 278.694 87.7801C278.718 87.6064 278.74 87.3927 278.745 87.1443L277.927 86.9947C277.917 87.0695 277.903 87.1576 277.898 87.2725C277.893 87.382 277.887 87.4702 277.882 87.5263C277.872 87.577 277.853 87.6465 277.832 87.7293C277.81 87.8121 277.768 87.8682 277.717 87.9029C277.666 87.943 277.597 87.9831 277.504 88.0232C277.411 88.0632 277.296 88.0926 277.147 88.1086C277.003 88.1193 276.83 88.1327 276.622 88.1327C276.082 88.1327 275.717 88.0926 275.533 88.0178C275.344 87.943 275.246 87.7801 275.222 87.545C275.198 86.9252 275.187 86.3536 275.182 85.8407H278.098C278.202 85.8353 278.465 85.806 278.894 85.7659L278.889 85.7632ZM275.184 85.2717V84.9832C275.19 84.8389 275.19 84.7347 275.195 84.6653C275.195 84.5958 275.2 84.497 275.211 84.3714C275.222 84.2432 275.235 84.1471 275.251 84.0776C275.262 84.0028 275.285 83.928 275.315 83.8452C275.344 83.7597 275.379 83.6956 275.424 83.6555C275.469 83.6101 275.523 83.5807 275.586 83.5567C275.72 83.5059 276.042 83.4765 276.548 83.4765C277.009 83.4765 277.326 83.5113 277.499 83.5861C277.672 83.6555 277.765 83.8051 277.781 84.0188C277.81 84.4008 277.826 84.8176 277.832 85.2744H275.182L275.184 85.2717ZM282.929 82.7686C282.849 82.758 282.767 82.7526 282.687 82.7526C282.375 82.7526 282.103 82.8274 281.88 82.9663C281.656 83.1052 281.488 83.3083 281.379 83.562L281.275 82.9022H280.319V88.7872H281.368V86.2601C281.368 86.1399 281.363 85.9368 281.352 85.6537C281.342 85.3705 281.336 85.1568 281.336 85.0126C281.336 84.7534 281.347 84.5451 281.376 84.3875C281.4 84.2325 281.456 84.0936 281.539 83.9707C281.621 83.8479 281.736 83.7624 281.89 83.7116C282.053 83.6662 282.253 83.6368 282.508 83.6368C282.628 83.6368 282.756 83.6475 282.894 83.6662L282.934 82.7713L282.929 82.7686ZM288.391 87.155C288.391 86.9306 288.381 86.7329 288.357 86.57C288.333 86.4017 288.306 86.2574 288.272 86.1372C288.232 86.009 288.173 85.9048 288.088 85.8193C288.003 85.7338 287.92 85.6644 287.835 85.6056C287.755 85.5548 287.632 85.5014 287.473 85.4613C287.313 85.4213 287.161 85.3866 287.017 85.3625C286.868 85.3385 286.676 85.3118 286.429 85.2824C286.394 85.2824 286.349 85.2717 286.285 85.2583C285.675 85.1835 285.294 85.1141 285.156 85.05C285.012 84.9859 284.942 84.8363 284.942 84.5985V84.0562C284.942 83.8479 285.022 83.6983 285.185 83.6048C285.347 83.5193 285.656 83.4712 286.112 83.4712C286.325 83.4712 286.492 83.4712 286.607 83.4765C286.716 83.4765 286.831 83.4872 286.943 83.5113C287.057 83.5353 287.14 83.5567 287.185 83.5861C287.23 83.6155 287.278 83.6609 287.318 83.7303C287.358 83.7998 287.387 83.8746 287.398 83.9547C287.409 84.0295 287.427 84.1444 287.438 84.2833L288.157 84.0642C288.157 83.8853 288.141 83.7277 288.106 83.5968C288.072 83.4578 288.026 83.343 287.973 83.2495C287.923 83.156 287.845 83.0758 287.75 83.0117C287.651 82.9476 287.552 82.8969 287.457 82.8621C287.358 82.8274 287.238 82.798 287.081 82.7767C286.927 82.7606 286.78 82.7473 286.65 82.7419C286.522 82.7366 286.357 82.7366 286.154 82.7366C285.827 82.7366 285.555 82.7473 285.331 82.7713C285.108 82.8007 284.905 82.8461 284.727 82.9156C284.543 82.9797 284.404 83.0705 284.301 83.188C284.197 83.3083 284.117 83.4552 284.064 83.6342C284.013 83.8131 283.984 84.0322 283.984 84.294C283.984 84.5371 284 84.7454 284.029 84.9191C284.064 85.0927 284.122 85.2423 284.197 85.3705C284.277 85.4987 284.365 85.5949 284.455 85.6777C284.554 85.7579 284.679 85.822 284.847 85.8754C285.014 85.9342 285.182 85.9689 285.347 85.9956C285.51 86.025 285.723 86.0544 285.981 86.0758C286.066 86.0864 286.184 86.1051 286.322 86.1158C286.466 86.1265 286.58 86.1399 286.668 86.1506C286.753 86.1612 286.852 86.1799 286.961 86.2013C287.07 86.2307 287.158 86.2654 287.214 86.3001C287.278 86.3349 287.329 86.3936 287.369 86.4684C287.414 86.5379 287.433 86.6314 287.433 86.7356C287.433 87.4168 287.363 87.8228 287.22 87.9377C287.174 88.0125 287.076 88.0659 286.932 88.0926C286.788 88.1167 286.564 88.1327 286.269 88.1327C285.779 88.1327 285.456 88.1167 285.299 88.0819C285.097 88.0472 284.964 87.9537 284.902 87.8041C284.857 87.6999 284.823 87.4408 284.788 87.0348L283.957 87.2485C283.957 87.4381 283.973 87.6118 283.997 87.764C284.021 87.919 284.066 88.0472 284.125 88.1567C284.189 88.2716 284.253 88.3651 284.314 88.4452C284.383 88.5254 284.476 88.5895 284.596 88.6429C284.716 88.6963 284.828 88.7364 284.932 88.7711C285.036 88.8005 285.174 88.8219 285.353 88.8352C285.526 88.8513 285.68 88.8593 285.813 88.8646C285.946 88.87 286.125 88.87 286.343 88.87C286.724 88.87 287.036 88.8459 287.283 88.7952C287.531 88.7444 287.739 88.6563 287.912 88.528C288.085 88.3945 288.213 88.2208 288.288 88.0018C288.362 87.7827 288.397 87.4996 288.397 87.1576L288.391 87.155ZM294.021 88.7845V84.8897C294.021 84.4623 293.992 84.115 293.923 83.8505C293.859 83.5834 293.739 83.3644 293.566 83.1907C293.398 83.0224 293.18 82.9022 292.908 82.8381C292.642 82.7686 292.298 82.7393 291.864 82.7393C291.587 82.7393 291.35 82.7446 291.161 82.7553C290.972 82.7713 290.78 82.806 290.591 82.8595C290.394 82.9102 290.245 82.9877 290.136 83.0785C290.027 83.1774 289.933 83.3029 289.864 83.4712C289.795 83.6395 289.76 83.8399 289.76 84.0776C289.76 84.1925 289.76 84.2753 289.771 84.3314L290.589 84.3661C290.589 84.326 290.589 84.2673 290.594 84.2031C290.594 84.0188 290.605 83.8906 290.618 83.8211C290.629 83.7517 290.676 83.6822 290.756 83.6128C290.836 83.5433 290.953 83.5033 291.108 83.4846C291.257 83.4739 291.489 83.4685 291.795 83.4685C292.232 83.4685 292.538 83.5033 292.711 83.5727C292.884 83.6422 292.964 83.7704 292.964 83.9494V85.5442C292.642 85.5442 292.354 85.5442 292.107 85.5548C291.859 85.5602 291.611 85.5709 291.353 85.5949C291.095 85.619 290.874 85.6537 290.69 85.6938C290.511 85.7285 290.333 85.7873 290.165 85.8487C289.997 85.9181 289.859 85.9983 289.755 86.0918C289.656 86.1853 289.577 86.3001 289.518 86.4337C289.454 86.5673 289.425 86.7169 289.425 86.8852C289.425 87.2618 289.454 87.5664 289.505 87.8041C289.555 88.0419 289.648 88.2422 289.782 88.4052C289.92 88.5735 290.104 88.6883 290.33 88.7578C290.562 88.8272 290.85 88.862 291.206 88.862C291.747 88.862 292.157 88.7978 292.434 88.6776C292.716 88.5574 292.906 88.309 293.017 87.9377L293.191 88.7818H294.021V88.7845ZM292.967 87.1015C292.956 87.3099 292.903 87.4889 292.804 87.6331C292.711 87.7774 292.546 87.9003 292.304 87.9911C292.056 88.0846 291.744 88.13 291.353 88.13C290.897 88.13 290.626 88.0606 290.535 87.927C290.45 87.7988 290.402 87.4595 290.402 86.9146V86.8852C290.402 86.7115 290.466 86.578 290.591 86.4818C290.719 86.3883 290.972 86.3135 291.345 86.2627C291.726 86.212 292.266 86.1826 292.964 86.1826V87.1015H292.967ZM297.963 88.0392C297.681 88.0632 297.457 88.0739 297.289 88.0739C297.121 88.0739 297.018 88.0151 296.983 87.9003C296.943 87.7854 296.924 87.537 296.924 87.1496V83.5033H298.003V82.9022H296.924V81.1445L295.875 81.23V82.8995H295.079V83.5006H295.875V87.5076C295.875 87.7453 295.891 87.9403 295.926 88.0926C295.955 88.2422 296.011 88.3811 296.099 88.5093C296.184 88.6296 296.312 88.723 296.48 88.7818C296.653 88.8406 296.866 88.8673 297.124 88.8673C297.367 88.8673 297.638 88.8433 297.936 88.7925L297.96 88.0419L297.963 88.0392ZM300.44 88.7845V82.8995H299.385V88.7845H300.44ZM300.44 80.6289H299.385V81.5532H300.44V80.6289ZM304.445 88.1273C303.955 88.1273 303.604 88.0926 303.396 88.0232C303.188 87.9537 303.085 87.8201 303.085 87.6358C303.045 87.1202 303.026 86.5326 303.026 85.8567C303.026 85.6377 303.031 85.3198 303.05 84.9084C303.066 84.4917 303.079 84.1871 303.079 83.9894C303.079 83.9253 303.09 83.8746 303.109 83.8211C303.127 83.7677 303.159 83.7277 303.207 83.6929C303.247 83.6582 303.292 83.6288 303.34 83.6074C303.385 83.5781 303.444 83.562 303.524 83.5487C303.604 83.5326 303.673 83.5193 303.732 83.5086C303.782 83.4979 303.865 83.4926 303.963 83.4846C304.067 83.4846 304.147 83.4792 304.2 83.4792H304.69C304.741 83.4792 304.824 83.4846 304.922 83.4846C305.026 83.4899 305.106 83.4952 305.159 83.5086C305.218 83.5193 305.287 83.5326 305.367 83.5487C305.442 83.5594 305.505 83.5781 305.551 83.6074C305.596 83.6315 305.636 83.6582 305.684 83.6929C305.729 83.7277 305.758 83.7677 305.782 83.8211C305.798 83.8719 305.812 83.9253 305.812 83.9894C305.812 84.1871 305.822 84.4917 305.841 84.9084C305.857 85.3198 305.865 85.6377 305.865 85.8567C305.865 86.5326 305.849 87.1229 305.806 87.6358C305.806 87.8201 305.708 87.9484 305.513 88.0125C305.311 88.0819 304.959 88.1167 304.453 88.1273H304.445ZM304.435 88.8673C304.837 88.8673 305.167 88.8513 305.431 88.8219C305.697 88.7872 305.921 88.7177 306.11 88.6082C306.299 88.504 306.451 88.3891 306.547 88.2609C306.651 88.1327 306.731 87.943 306.789 87.6705C306.848 87.4034 306.882 87.1443 306.893 86.8852C306.904 86.6261 306.909 86.2601 306.909 85.7926C306.909 85.4453 306.904 85.1568 306.898 84.9244C306.888 84.692 306.869 84.4623 306.834 84.2432C306.8 84.0188 306.765 83.8398 306.715 83.7009C306.669 83.562 306.6 83.4338 306.507 83.3083C306.414 83.188 306.31 83.0945 306.201 83.0304C306.086 82.961 305.942 82.9102 305.764 82.8568C305.585 82.8114 305.396 82.7767 305.188 82.7633C304.981 82.7473 304.733 82.7393 304.44 82.7393C304.147 82.7393 303.905 82.7446 303.697 82.7633C303.489 82.774 303.295 82.8087 303.122 82.8568C302.943 82.9076 302.8 82.961 302.685 83.0304C302.571 83.0945 302.472 83.1854 302.379 83.3083C302.286 83.4365 302.216 83.562 302.171 83.7009C302.12 83.8398 302.078 84.0188 302.051 84.2432C302.017 84.4623 302.001 84.6947 301.987 84.9244C301.982 85.1568 301.977 85.4453 301.977 85.7926C301.977 86.2601 301.982 86.6261 301.993 86.8852C302.003 87.1443 302.038 87.4061 302.096 87.6705C302.155 87.943 302.235 88.1327 302.333 88.2609C302.432 88.3811 302.576 88.4987 302.77 88.6082C302.959 88.7177 303.186 88.7872 303.449 88.8219C303.716 88.8513 304.043 88.8673 304.435 88.8673ZM313.034 88.7872V85.5201C313.034 85.253 313.034 85.0286 313.024 84.8389C313.018 84.6493 313.008 84.4516 312.984 84.2619C312.96 84.0723 312.933 83.9093 312.891 83.7757C312.851 83.6475 312.805 83.522 312.741 83.3991C312.678 83.2762 312.603 83.18 312.51 83.1052C312.417 83.0304 312.307 82.961 312.188 82.9022C312.06 82.8434 311.916 82.798 311.761 82.774C311.599 82.7499 311.415 82.7393 311.207 82.7393C310.771 82.7393 310.39 82.8034 310.073 82.9289C309.756 83.0545 309.554 83.2709 309.463 83.5594L309.359 82.8995H308.398V88.7845H309.452V85.6457C309.452 85.5068 309.447 85.3171 309.436 85.0847C309.426 84.8523 309.42 84.692 309.42 84.5985C309.42 84.4356 309.431 84.2966 309.46 84.1818C309.484 84.0723 309.53 83.9681 309.594 83.8692C309.663 83.7704 309.756 83.7009 309.876 83.6448C309.996 83.5941 310.153 83.5513 310.342 83.5166C310.531 83.4872 310.763 83.4765 311.034 83.4765H311.335C311.41 83.4819 311.484 83.4926 311.559 83.5166C311.634 83.5407 311.692 83.5674 311.732 83.5914C311.772 83.6155 311.807 83.6609 311.847 83.7357C311.881 83.8051 311.911 83.8746 311.921 83.944C311.937 84.0135 311.951 84.1177 311.961 84.2566C311.972 84.3955 311.985 84.5344 311.985 84.6733C311.985 84.8122 311.99 84.9912 311.99 85.2236V88.7845H313.04L313.034 88.7872Z" fill="#202020" />
                    </g>
                </g>
            </g>
        </g>
        <defs>
            <filter id="filter0_d_4651_6661" x="24.9547" y="45.4414" width="77.4734" height="59.5531" filterUnits="userSpaceOnUse" color-interpolation-filters="sRGB">
                <feFlood flood-opacity="0" result="BackgroundImageFix" />
                <feColorMatrix in="SourceAlpha" type="matrix" values="0 0 0 0 0 0 0 0 0 0 0 0 0 0 0 0 0 0 127 0" result="hardAlpha" />
                <feOffset dy="10" />
                <feGaussianBlur stdDeviation="3.55" />
                <feComposite in2="hardAlpha" operator="out" />
                <feColorMatrix type="matrix" values="0 0 0 0 0 0 0 0 0 0 0 0 0 0 0 0 0 0 0.7 0" />
                <feBlend mode="normal" in2="BackgroundImageFix" result="effect1_dropShadow_4651_6661" />
                <feBlend mode="normal" in="SourceGraphic" in2="effect1_dropShadow_4651_6661" result="shape" />
            </filter>
            <linearGradient id="paint0_linear_4651_6661" x1="43.3441" y1="134.423" x2="88.4109" y2="8.11487" gradientUnits="userSpaceOnUse">
                <stop stop-color="#0049E6" />
                <stop offset="0.49" stop-color="#9C15F7" />
                <stop offset="1" stop-color="#FF4CF8" />
            </linearGradient>
            <style>
            
@-webkit-keyframes vihSplashPlaneAnim {
        0%{
          -webkit-transform: translate3d(120px, 0px, 0px) scale(0);
                  transform: translate3d(120px, 0px, 0px) scale(0);
          opacity: 0;
        }
        15%{
          -webkit-transform: translate3d(120px, 0px, 0px) scale(1.25);
                  transform: translate3d(120px, 0px, 0px) scale(1.25);
          opacity: 1;
        }
        30%{
          -webkit-transform: translate3d(120px, 0px, 0px) scale(1.25);
                  transform: translate3d(120px, 0px, 0px) scale(1.25);
          -webkit-animation-timing-function: cubic-bezier(0.47, 1.46, 0.42, 0.96);
                  animation-timing-function: cubic-bezier(0.47, 1.46, 0.42, 0.96);
        }
        50%{
          -webkit-transform: translate3d(0, 0, 0) scale(1);
                  transform: translate3d(0, 0, 0) scale(1);
          -webkit-animation-timing-function: linear;
                  animation-timing-function: linear;
        }
        70%{
          -webkit-transform: translate3d(0, 0, 0) scale(1);
                  transform: translate3d(0, 0, 0) scale(1);
          opacity: 1;
        }
        80%{
          -webkit-transform: translate3d(0, 0, 0) scale(1);
                  transform: translate3d(0, 0, 0) scale(1);
          opacity: 0;
        }
        100%{
          -webkit-transform: translate3d(0vw, 0vh, 0) scale(1);
                  transform: translate3d(0vw, 0vh, 0) scale(1);
          opacity: 0;
        }
      }
      
      @keyframes vihSplashPlaneAnim {
        0%{
          -webkit-transform: translate3d(120px, 0px, 0px) scale(0);
                  transform: translate3d(120px, 0px, 0px) scale(0);
          opacity: 0;
        }
        15%{
          -webkit-transform: translate3d(120px, 0px, 0px) scale(1.25);
                  transform: translate3d(120px, 0px, 0px) scale(1.25);
          opacity: 1;
        }
        30%{
          -webkit-transform: translate3d(120px, 0px, 0px) scale(1.25);
                  transform: translate3d(120px, 0px, 0px) scale(1.25);
          -webkit-animation-timing-function: cubic-bezier(0.47, 1.46, 0.42, 0.96);
                  animation-timing-function: cubic-bezier(0.47, 1.46, 0.42, 0.96);
        }
        50%{
          -webkit-transform: translate3d(0, 0, 0) scale(1);
                  transform: translate3d(0, 0, 0) scale(1);
          -webkit-animation-timing-function: linear;
                  animation-timing-function: linear;
        }
        70%{
          -webkit-transform: translate3d(0, 0, 0) scale(1);
                  transform: translate3d(0, 0, 0) scale(1);
          opacity: 1;
        }
        80%{
          -webkit-transform: translate3d(0, 0, 0) scale(1);
                  transform: translate3d(0, 0, 0) scale(1);
          opacity: 0;
        }
        100%{
          -webkit-transform: translate3d(0vw, 0vh, 0) scale(1);
                  transform: translate3d(0vw, 0vh, 0) scale(1);
          opacity: 0;
        }
      }
      
      @-webkit-keyframes vihSplashTextAnim {
        0%{
          opacity: 0;
          -webkit-transform: scale(0.75);
                  transform: scale(0.75);
        }
        30%{
          opacity: 0;
          -webkit-transform: scale(0.75);
                  transform: scale(0.75);
          -webkit-animation-timing-function: cubic-bezier(0.47, 1.46, 0.42, 0.96);
                  animation-timing-function: cubic-bezier(0.47, 1.46, 0.42, 0.96);
        }
        50%{
          opacity: 1;
          -webkit-transform: scale(1);
                  transform: scale(1);
          -webkit-animation-timing-function: cubic-bezier(0.47, 1.46, 0.42, 0.96);
                  animation-timing-function: cubic-bezier(0.47, 1.46, 0.42, 0.96);
        }
        70%{
          opacity: 1;
          -webkit-transform: scale(1);
                  transform: scale(1);
          -webkit-animation-timing-function: linear;
                  animation-timing-function: linear;
        }
        80%{
          -webkit-transform: translate3d(0vw, 0vh, 0) scale(1);
                  transform: translate3d(0vw, 0vh, 0) scale(1);
          opacity: 0;
        }
        100%{
          -webkit-transform: translate3d(0vw, 0vh, 0) scale(1);
                  transform: translate3d(0vw, 0vh, 0) scale(1);
          opacity: 0;
        }
      }
      
      @keyframes vihSplashTextAnim {
        0%{
          opacity: 0;
          -webkit-transform: scale(0.75);
                  transform: scale(0.75);
        }
        30%{
          opacity: 0;
          -webkit-transform: scale(0.75);
                  transform: scale(0.75);
          -webkit-animation-timing-function: cubic-bezier(0.47, 1.46, 0.42, 0.96);
                  animation-timing-function: cubic-bezier(0.47, 1.46, 0.42, 0.96);
        }
        50%{
          opacity: 1;
          -webkit-transform: scale(1);
                  transform: scale(1);
          -webkit-animation-timing-function: cubic-bezier(0.47, 1.46, 0.42, 0.96);
                  animation-timing-function: cubic-bezier(0.47, 1.46, 0.42, 0.96);
        }
        70%{
          opacity: 1;
          -webkit-transform: scale(1);
                  transform: scale(1);
          -webkit-animation-timing-function: linear;
                  animation-timing-function: linear;
        }
        80%{
          -webkit-transform: translate3d(0vw, 0vh, 0) scale(1);
                  transform: translate3d(0vw, 0vh, 0) scale(1);
          opacity: 0;
        }
        100%{
          -webkit-transform: translate3d(0vw, 0vh, 0) scale(1);
                  transform: translate3d(0vw, 0vh, 0) scale(1);
          opacity: 0;
        }
      }
      

      

#logo{
        -webkit-transform-origin: 62px 68px;
            -ms-transform-origin: 62px 68px;
                transform-origin: 62px 68px;
        -webkit-animation: vihSplashPlaneAnim 2.5s ease-in-out forwards infinite;
                animation: vihSplashPlaneAnim 2.5s ease-in-out forwards infinite;
    }
    #text{
        -webkit-transform-origin: 218px 76px;
            -ms-transform-origin: 218px 76px;
                transform-origin: 218px 76px;
        -webkit-animation: vihSplashTextAnim 2.5s ease-in-out forwards infinite;
                animation: vihSplashTextAnim 2.5s ease-in-out forwards infinite;
    }
    
    .vihSplash__bg1{
        position: absolute;
        width: 80vh;
        height: 80vh;
        top: 20vh;
        left: 50%;
        -webkit-transform: translateX(-50%);
            -ms-transform: translateX(-50%);
                transform: translateX(-50%);
        background: -o-linear-gradient(236deg, #BCA5FF 22.45%, #F8A5FF 59.05%);
        background: linear-gradient(214deg, #BCA5FF 22.45%, #F8A5FF 59.05%);
        -webkit-filter: blur(105px);
                filter: blur(105px);
        opacity: 0.35;
    }
    .vihSplash__bg2{
        position: absolute;
        width: 70vh;
        height: 70vh;
        top: 30%;
        left: 55%;
        -webkit-transform: translateX(0);
            -ms-transform: translateX(0);
                transform: translateX(0);
        background: -o-linear-gradient(337deg, #FFEDBF 20.19%, #FFB5A5 67.59%);
        background: linear-gradient(113deg, #FFEDBF 20.19%, #FFB5A5 67.59%);
        -webkit-filter: blur(78px);
                filter: blur(78px);
        opacity: 0.25;
        border: 1px solid #000;
    }
    .vihSplash__bg3{
        position: absolute;
        width: 70vh;
        height: 70vh;
        top: 30%;
        right: 55%;
        -webkit-transform: translateX(-25%);
            -ms-transform: translateX(-25%);
                transform: translateX(-25%);
        background: -webkit-gradient(linear, left top, left bottom, color-stop(24.9%, #A77DFF), color-stop(97.56%, #FF6D99));
        background: -o-linear-gradient(top, #A77DFF 24.9%, #FF6D99 97.56%);
        background: linear-gradient(180deg, #A77DFF 24.9%, #FF6D99 97.56%);
        -webkit-filter: blur(78px);
                filter: blur(78px);
        opacity: 0.25;
        border: 1px solid #000;
    }
    
    .vihSplash__inner{
        position: absolute;
        z-index: 1;
        left: 50%;
        top: 50%;
        width: var(--splash-logo-width);
        height: calc(0.28 * var(--splash-logo-width));
        -webkit-transform: translate3d(-50%, -50%, 0);
                transform: translate3d(-50%, -50%, 0);
    }
    .vihSplash__planeBg{
        position: absolute;
        width: 31%;
        -webkit-transform-origin: center center;
            -ms-transform-origin: center center;
                transform-origin: center center;
    }
    .vihSplash__plane{
        position: absolute;
        width: 23%;
        top: 15%;
        left: 3%;
        -webkit-transform-origin: center center;
            -ms-transform-origin: center center;
                transform-origin: center center;
    }
    .vihSplash__text{
        position: absolute;
        width: 64%;
        right: 0;
        top: 30%;
        -webkit-transform-origin: center center;
            -ms-transform-origin: center center;
                transform-origin: center center;
    }
    
    .vihSplash.active .vihSplash__planeBg{
        -webkit-animation: vihSplashPlaneBgAnim 5s ease-in-out forwards infinite;
                animation: vihSplashPlaneBgAnim 5s ease-in-out forwards infinite;
    }
    .vihSplash.active .vihSplash__text{
        -webkit-animation: vihSplashTextAnim 5s ease-in-out forwards infinite ;
                animation: vihSplashTextAnim 5s ease-in-out forwards infinite ;
    }
    .vihSplash.active .vihSplash__plane{
        -webkit-animation: vihSplashPlaneAnim 5s ease-in-out forwards infinite ;
                animation: vihSplashPlaneAnim 5s ease-in-out forwards infinite ;
    }
            </style>
        </defs>
    </svg>